<mxfile host="65bd71144e">
    <diagram id="bGQvuA1Orp7IEViJrfHA" name="第 1 页">
        <mxGraphModel dx="743" dy="608" grid="1" gridSize="10" guides="1" tooltips="1" connect="1" arrows="1" fold="1" page="1" pageScale="1" pageWidth="827" pageHeight="1169" math="0" shadow="0">
            <root>
                <mxCell id="0"/>
                <mxCell id="1" parent="0"/>
                <mxCell id="dqscPCYxmZKw4MKEMmOo-101" value="" style="endArrow=classic;html=1;rounded=0;" edge="1" parent="1">
                    <mxGeometry width="50" height="50" relative="1" as="geometry">
                        <mxPoint x="20" y="79.5" as="sourcePoint"/>
                        <mxPoint x="620" y="79.5" as="targetPoint"/>
                    </mxGeometry>
                </mxCell>
                <mxCell id="dqscPCYxmZKw4MKEMmOo-102" value="feature" style="edgeLabel;html=1;align=center;verticalAlign=middle;resizable=0;points=[];" connectable="0" vertex="1" parent="dqscPCYxmZKw4MKEMmOo-101">
                    <mxGeometry x="0.8467" relative="1" as="geometry">
                        <mxPoint y="1" as="offset"/>
                    </mxGeometry>
                </mxCell>
                <mxCell id="dqscPCYxmZKw4MKEMmOo-79" value="1）100:100:" style="text;html=1;align=center;verticalAlign=middle;resizable=0;points=[];autosize=1;strokeColor=none;fillColor=none;" vertex="1" parent="1">
                    <mxGeometry x="20" y="20" width="90" height="30" as="geometry"/>
                </mxCell>
                <mxCell id="dqscPCYxmZKw4MKEMmOo-84" value="" style="group" connectable="0" vertex="1" parent="1">
                    <mxGeometry x="160" y="245" width="310" height="30" as="geometry"/>
                </mxCell>
                <mxCell id="dqscPCYxmZKw4MKEMmOo-80" value="" style="ellipse;whiteSpace=wrap;html=1;aspect=fixed;" vertex="1" parent="dqscPCYxmZKw4MKEMmOo-84">
                    <mxGeometry width="30" height="30" as="geometry"/>
                </mxCell>
                <mxCell id="dqscPCYxmZKw4MKEMmOo-83" value="active: 事务正在执行，或者还没有开始，不可见" style="text;html=1;align=center;verticalAlign=middle;resizable=0;points=[];autosize=1;strokeColor=none;fillColor=none;" vertex="1" parent="dqscPCYxmZKw4MKEMmOo-84">
                    <mxGeometry x="30" width="280" height="30" as="geometry"/>
                </mxCell>
                <mxCell id="dqscPCYxmZKw4MKEMmOo-85" value="" style="group" connectable="0" vertex="1" parent="1">
                    <mxGeometry x="160" y="285" width="330" height="30" as="geometry"/>
                </mxCell>
                <mxCell id="dqscPCYxmZKw4MKEMmOo-86" value="" style="ellipse;whiteSpace=wrap;html=1;aspect=fixed;fillColor=#d5e8d4;strokeColor=#82b366;" vertex="1" parent="dqscPCYxmZKw4MKEMmOo-85">
                    <mxGeometry width="30" height="30" as="geometry"/>
                </mxCell>
                <mxCell id="dqscPCYxmZKw4MKEMmOo-87" value="inactive: 事务已经 commit 或者 abort，如果 commit 可见" style="text;html=1;align=center;verticalAlign=middle;resizable=0;points=[];autosize=1;strokeColor=none;fillColor=none;" vertex="1" parent="dqscPCYxmZKw4MKEMmOo-85">
                    <mxGeometry x="30" width="320" height="30" as="geometry"/>
                </mxCell>
                <mxCell id="dqscPCYxmZKw4MKEMmOo-88" value="" style="ellipse;whiteSpace=wrap;html=1;aspect=fixed;fillColor=#d5e8d4;strokeColor=#82b366;" vertex="1" parent="1">
                    <mxGeometry x="50" y="65" width="30" height="30" as="geometry"/>
                </mxCell>
                <mxCell id="dqscPCYxmZKw4MKEMmOo-89" value="98" style="ellipse;whiteSpace=wrap;html=1;aspect=fixed;fillColor=#d5e8d4;strokeColor=#82b366;" vertex="1" parent="1">
                    <mxGeometry x="100" y="65" width="30" height="30" as="geometry"/>
                </mxCell>
                <mxCell id="dqscPCYxmZKw4MKEMmOo-90" value="99" style="ellipse;whiteSpace=wrap;html=1;aspect=fixed;fillColor=#d5e8d4;strokeColor=#82b366;" vertex="1" parent="1">
                    <mxGeometry x="150" y="65" width="30" height="30" as="geometry"/>
                </mxCell>
                <mxCell id="dqscPCYxmZKw4MKEMmOo-91" value="100" style="ellipse;whiteSpace=wrap;html=1;aspect=fixed;fillColor=#d5e8d4;strokeColor=#82b366;" vertex="1" parent="1">
                    <mxGeometry x="200" y="65" width="30" height="30" as="geometry"/>
                </mxCell>
                <mxCell id="dqscPCYxmZKw4MKEMmOo-92" value="101" style="ellipse;whiteSpace=wrap;html=1;aspect=fixed;" vertex="1" parent="1">
                    <mxGeometry x="250" y="65" width="30" height="30" as="geometry"/>
                </mxCell>
                <mxCell id="dqscPCYxmZKw4MKEMmOo-93" value="102" style="ellipse;whiteSpace=wrap;html=1;aspect=fixed;" vertex="1" parent="1">
                    <mxGeometry x="300" y="65" width="30" height="30" as="geometry"/>
                </mxCell>
                <mxCell id="dqscPCYxmZKw4MKEMmOo-94" value="103" style="ellipse;whiteSpace=wrap;html=1;aspect=fixed;" vertex="1" parent="1">
                    <mxGeometry x="350" y="65" width="30" height="30" as="geometry"/>
                </mxCell>
                <mxCell id="dqscPCYxmZKw4MKEMmOo-95" value="104" style="ellipse;whiteSpace=wrap;html=1;aspect=fixed;" vertex="1" parent="1">
                    <mxGeometry x="400" y="65" width="30" height="30" as="geometry"/>
                </mxCell>
                <mxCell id="dqscPCYxmZKw4MKEMmOo-96" value="105" style="ellipse;whiteSpace=wrap;html=1;aspect=fixed;" vertex="1" parent="1">
                    <mxGeometry x="450" y="65" width="30" height="30" as="geometry"/>
                </mxCell>
                <mxCell id="dqscPCYxmZKw4MKEMmOo-97" value="" style="ellipse;whiteSpace=wrap;html=1;aspect=fixed;dashed=1;" vertex="1" parent="1">
                    <mxGeometry x="500" y="65" width="30" height="30" as="geometry"/>
                </mxCell>
                <mxCell id="dqscPCYxmZKw4MKEMmOo-103" value="2）100:104:100,102" style="text;html=1;align=center;verticalAlign=middle;resizable=0;points=[];autosize=1;strokeColor=none;fillColor=none;" vertex="1" parent="1">
                    <mxGeometry x="20" y="125" width="130" height="30" as="geometry"/>
                </mxCell>
                <mxCell id="dqscPCYxmZKw4MKEMmOo-104" value="" style="endArrow=classic;html=1;rounded=0;" edge="1" parent="1">
                    <mxGeometry width="50" height="50" relative="1" as="geometry">
                        <mxPoint x="20" y="189.5" as="sourcePoint"/>
                        <mxPoint x="620" y="189.5" as="targetPoint"/>
                    </mxGeometry>
                </mxCell>
                <mxCell id="dqscPCYxmZKw4MKEMmOo-105" value="feature" style="edgeLabel;html=1;align=center;verticalAlign=middle;resizable=0;points=[];" connectable="0" vertex="1" parent="dqscPCYxmZKw4MKEMmOo-104">
                    <mxGeometry x="0.8467" relative="1" as="geometry">
                        <mxPoint y="1" as="offset"/>
                    </mxGeometry>
                </mxCell>
                <mxCell id="dqscPCYxmZKw4MKEMmOo-106" value="" style="ellipse;whiteSpace=wrap;html=1;aspect=fixed;fillColor=#d5e8d4;strokeColor=#82b366;" vertex="1" parent="1">
                    <mxGeometry x="50" y="175" width="30" height="30" as="geometry"/>
                </mxCell>
                <mxCell id="dqscPCYxmZKw4MKEMmOo-107" value="98" style="ellipse;whiteSpace=wrap;html=1;aspect=fixed;fillColor=#d5e8d4;strokeColor=#82b366;" vertex="1" parent="1">
                    <mxGeometry x="100" y="175" width="30" height="30" as="geometry"/>
                </mxCell>
                <mxCell id="dqscPCYxmZKw4MKEMmOo-108" value="99" style="ellipse;whiteSpace=wrap;html=1;aspect=fixed;fillColor=#d5e8d4;strokeColor=#82b366;" vertex="1" parent="1">
                    <mxGeometry x="150" y="175" width="30" height="30" as="geometry"/>
                </mxCell>
                <mxCell id="dqscPCYxmZKw4MKEMmOo-109" value="100" style="ellipse;whiteSpace=wrap;html=1;aspect=fixed;" vertex="1" parent="1">
                    <mxGeometry x="200" y="175" width="30" height="30" as="geometry"/>
                </mxCell>
                <mxCell id="dqscPCYxmZKw4MKEMmOo-110" value="101" style="ellipse;whiteSpace=wrap;html=1;aspect=fixed;fillColor=#d5e8d4;strokeColor=#82b366;" vertex="1" parent="1">
                    <mxGeometry x="250" y="175" width="30" height="30" as="geometry"/>
                </mxCell>
                <mxCell id="dqscPCYxmZKw4MKEMmOo-111" value="102" style="ellipse;whiteSpace=wrap;html=1;aspect=fixed;" vertex="1" parent="1">
                    <mxGeometry x="300" y="175" width="30" height="30" as="geometry"/>
                </mxCell>
                <mxCell id="dqscPCYxmZKw4MKEMmOo-112" value="103" style="ellipse;whiteSpace=wrap;html=1;aspect=fixed;fillColor=#d5e8d4;strokeColor=#82b366;" vertex="1" parent="1">
                    <mxGeometry x="350" y="175" width="30" height="30" as="geometry"/>
                </mxCell>
                <mxCell id="dqscPCYxmZKw4MKEMmOo-113" value="104" style="ellipse;whiteSpace=wrap;html=1;aspect=fixed;" vertex="1" parent="1">
                    <mxGeometry x="400" y="175" width="30" height="30" as="geometry"/>
                </mxCell>
                <mxCell id="dqscPCYxmZKw4MKEMmOo-114" value="105" style="ellipse;whiteSpace=wrap;html=1;aspect=fixed;" vertex="1" parent="1">
                    <mxGeometry x="450" y="175" width="30" height="30" as="geometry"/>
                </mxCell>
                <mxCell id="dqscPCYxmZKw4MKEMmOo-115" value="" style="ellipse;whiteSpace=wrap;html=1;aspect=fixed;dashed=1;" vertex="1" parent="1">
                    <mxGeometry x="500" y="175" width="30" height="30" as="geometry"/>
                </mxCell>
            </root>
        </mxGraphModel>
    </diagram>
</mxfile>